HIERARCHY
ROOT Hips
{
	OFFSET 0.000000 0.000000 0.000000
	CHANNELS 6 Xposition Yposition Zposition Zrotation Yrotation Xrotation 
	JOINT Spine
	{
		OFFSET 0.000000 10.181600 0.131500
		CHANNELS 3 Zrotation Yrotation Xrotation
		JOINT Spine1
		{
			OFFSET 0.000000 10.083500 -1.000800
			CHANNELS 3 Zrotation Yrotation Xrotation
			JOINT Spine2
			{
				OFFSET 0.000000 9.100000 -1.373400
				CHANNELS 3 Zrotation Yrotation Xrotation
				JOINT Neck
				{
					OFFSET 0.000000 16.671700 -2.516200
					CHANNELS 3 Zrotation Yrotation Xrotation
					JOINT Head
					{
						OFFSET -0.000000 9.617900 1.685000
						CHANNELS 3 Zrotation Yrotation Xrotation
						JOINT HeadTop_End
						{
							OFFSET -0.000000 17.815200 2.585000
							CHANNELS 3 Zrotation Yrotation Xrotation
							End Site
							{
								OFFSET 0.000000 0.000000 0.000000
							}
						}
						JOINT LeftEye
						{
							OFFSET 3.067600 6.409500 9.283600
							CHANNELS 3 Zrotation Yrotation Xrotation
							End Site
							{
								OFFSET 0.000000 0.000000 0.000000
							}
						}
						JOINT RightEye
						{
							OFFSET -3.067600 6.409500 9.283500
							CHANNELS 3 Zrotation Yrotation Xrotation
							End Site
							{
								OFFSET 0.000000 0.000000 0.000000
							}
						}
					}
				}
				JOINT LeftShoulder
				{
					OFFSET 4.570400 10.946000 -2.628000
					CHANNELS 3 Zrotation Yrotation Xrotation
					JOINT LeftArm
					{
						OFFSET 10.592400 -0.524600 -2.232100
						CHANNELS 3 Zrotation Yrotation Xrotation
						JOINT LeftForeArm
						{
							OFFSET 27.841500 -0.000100 0.000000
							CHANNELS 3 Zrotation Yrotation Xrotation
							JOINT LeftHand
							{
								OFFSET 28.328800 -0.000000 0.000000
								CHANNELS 3 Zrotation Yrotation Xrotation
								JOINT LeftHandThumb1
								{
									OFFSET 2.466100 -1.575000 2.682400
									CHANNELS 3 Zrotation Yrotation Xrotation
									JOINT LeftHandThumb2
									{
										OFFSET 3.229800 -1.864700 1.864700
										CHANNELS 3 Zrotation Yrotation Xrotation
										JOINT LeftHandThumb3
										{
											OFFSET 2.652600 -1.531500 1.531500
											CHANNELS 3 Zrotation Yrotation Xrotation
											JOINT LeftHandThumb4
											{
												OFFSET 1.954600 -1.128500 1.128500
												CHANNELS 3 Zrotation Yrotation Xrotation
												End Site
												{
													OFFSET 0.000000 0.000000 0.000000
												}
											}
										}
									}
								}
								JOINT LeftHandIndex1
								{
									OFFSET 9.109300 -0.517100 2.260100
									CHANNELS 3 Zrotation Yrotation Xrotation
									JOINT LeftHandIndex2
									{
										OFFSET 3.676400 -0.000000 0.000000
										CHANNELS 3 Zrotation Yrotation Xrotation
										JOINT LeftHandIndex3
										{
											OFFSET 2.883100 0.000000 -0.000000
											CHANNELS 3 Zrotation Yrotation Xrotation
											JOINT LeftHandIndex4
											{
												OFFSET 2.392700 0.000000 0.000000
												CHANNELS 3 Zrotation Yrotation Xrotation
												End Site
												{
													OFFSET 0.000000 0.000000 0.000000
												}
											}
										}
									}
								}
								JOINT LeftHandMiddle1
								{
									OFFSET 9.533400 -0.000000 0.000000
									CHANNELS 3 Zrotation Yrotation Xrotation
									JOINT LeftHandMiddle2
									{
										OFFSET 3.698200 0.000000 0.000000
										CHANNELS 3 Zrotation Yrotation Xrotation
										JOINT LeftHandMiddle3
										{
											OFFSET 2.950900 -0.000000 0.000000
											CHANNELS 3 Zrotation Yrotation Xrotation
											JOINT LeftHandMiddle4
											{
												OFFSET 2.833900 -0.000000 -0.000000
												CHANNELS 3 Zrotation Yrotation Xrotation
												End Site
												{
													OFFSET 0.000000 0.000000 0.000000
												}
											}
										}
									}
								}
								JOINT LeftHandRing1
								{
									OFFSET 9.104500 -0.043900 -1.865100
									CHANNELS 3 Zrotation Yrotation Xrotation
									JOINT LeftHandRing2
									{
										OFFSET 3.154000 -0.000000 0.000000
										CHANNELS 3 Zrotation Yrotation Xrotation
										JOINT LeftHandRing3
										{
											OFFSET 2.937700 -0.000000 -0.000000
											CHANNELS 3 Zrotation Yrotation Xrotation
											JOINT LeftHandRing4
											{
												OFFSET 2.647500 -0.000000 0.000000
												CHANNELS 3 Zrotation Yrotation Xrotation
												End Site
												{
													OFFSET 0.000000 0.000000 0.000000
												}
											}
										}
									}
								}
								JOINT LeftHandPinky1
								{
									OFFSET 8.077800 -0.488700 -3.806100
									CHANNELS 3 Zrotation Yrotation Xrotation
									JOINT LeftHandPinky2
									{
										OFFSET 3.600000 -0.000000 -0.000000
										CHANNELS 3 Zrotation Yrotation Xrotation
										JOINT LeftHandPinky3
										{
											OFFSET 2.114200 0.000000 -0.000000
											CHANNELS 3 Zrotation Yrotation Xrotation
											JOINT LeftHandPinky4
											{
												OFFSET 1.975700 0.000000 -0.000000
												CHANNELS 3 Zrotation Yrotation Xrotation
												End Site
												{
													OFFSET 0.000000 0.000000 0.000000
												}
											}
										}
									}
								}
							}
						}
					}
				}
				JOINT RightShoulder
				{
					OFFSET -4.570000 10.946200 -2.628000
					CHANNELS 3 Zrotation Yrotation Xrotation
					JOINT RightArm
					{
						OFFSET -10.592800 -0.524800 -2.232100
						CHANNELS 3 Zrotation Yrotation Xrotation
						JOINT RightForeArm
						{
							OFFSET -27.841500 -0.000000 0.000000
							CHANNELS 3 Zrotation Yrotation Xrotation
							JOINT RightHand
							{
								OFFSET -28.328800 -0.000000 0.000100
								CHANNELS 3 Zrotation Yrotation Xrotation
								JOINT RightHandPinky1
								{
									OFFSET -8.076700 -0.488500 -3.806000
									CHANNELS 3 Zrotation Yrotation Xrotation
									JOINT RightHandPinky2
									{
										OFFSET -3.600000 0.000000 0.000100
										CHANNELS 3 Zrotation Yrotation Xrotation
										JOINT RightHandPinky3
										{
											OFFSET -2.114200 0.000000 0.000000
											CHANNELS 3 Zrotation Yrotation Xrotation
											JOINT RightHandPinky4
											{
												OFFSET -1.975700 -0.000000 -0.000000
												CHANNELS 3 Zrotation Yrotation Xrotation
												End Site
												{
													OFFSET 0.000000 0.000000 0.000000
												}
											}
										}
									}
								}
								JOINT RightHandRing1
								{
									OFFSET -9.103600 -0.043900 -1.865100
									CHANNELS 3 Zrotation Yrotation Xrotation
									JOINT RightHandRing2
									{
										OFFSET -3.154000 0.000000 0.000000
										CHANNELS 3 Zrotation Yrotation Xrotation
										JOINT RightHandRing3
										{
											OFFSET -2.937700 -0.000000 -0.000000
											CHANNELS 3 Zrotation Yrotation Xrotation
											JOINT RightHandRing4
											{
												OFFSET -2.647500 0.000000 -0.000000
												CHANNELS 3 Zrotation Yrotation Xrotation
												End Site
												{
													OFFSET 0.000000 0.000000 0.000000
												}
											}
										}
									}
								}
								JOINT RightHandMiddle1
								{
									OFFSET -9.532500 -0.000000 0.000000
									CHANNELS 3 Zrotation Yrotation Xrotation
									JOINT RightHandMiddle2
									{
										OFFSET -3.698200 0.000000 -0.000000
										CHANNELS 3 Zrotation Yrotation Xrotation
										JOINT RightHandMiddle3
										{
											OFFSET -2.950900 -0.000000 -0.000000
											CHANNELS 3 Zrotation Yrotation Xrotation
											JOINT RightHandMiddle4
											{
												OFFSET -2.833900 0.000000 0.000100
												CHANNELS 3 Zrotation Yrotation Xrotation
												End Site
												{
													OFFSET 0.000000 0.000000 0.000000
												}
											}
										}
									}
								}
								JOINT RightHandIndex1
								{
									OFFSET -9.108300 -0.516800 2.260100
									CHANNELS 3 Zrotation Yrotation Xrotation
									JOINT RightHandIndex2
									{
										OFFSET -3.676400 0.000000 0.000000
										CHANNELS 3 Zrotation Yrotation Xrotation
										JOINT RightHandIndex3
										{
											OFFSET -2.883100 -0.000000 0.000000
											CHANNELS 3 Zrotation Yrotation Xrotation
											JOINT RightHandIndex4
											{
												OFFSET -2.392700 0.000000 0.000000
												CHANNELS 3 Zrotation Yrotation Xrotation
												End Site
												{
													OFFSET 0.000000 0.000000 0.000000
												}
											}
										}
									}
								}
								JOINT RightHandThumb1
								{
									OFFSET -2.464800 -1.572700 2.682600
									CHANNELS 3 Zrotation Yrotation Xrotation
									JOINT RightHandThumb2
									{
										OFFSET -3.229800 -1.864700 1.864700
										CHANNELS 3 Zrotation Yrotation Xrotation
										JOINT RightHandThumb3
										{
											OFFSET -2.652600 -1.531400 1.531400
											CHANNELS 3 Zrotation Yrotation Xrotation
											JOINT RightHandThumb4
											{
												OFFSET -1.954600 -1.128500 1.128500
												CHANNELS 3 Zrotation Yrotation Xrotation
												End Site
												{
													OFFSET 0.000000 0.000000 0.000000
												}
											}
										}
									}
								}
							}
						}
					}
				}
			}
		}
	}
	JOINT LeftUpLeg
	{
		OFFSET 8.207800 -6.751700 -1.599600
		CHANNELS 3 Zrotation Yrotation Xrotation
		JOINT LeftLeg
		{
			OFFSET -0.000000 -44.370500 0.284600
			CHANNELS 3 Zrotation Yrotation Xrotation
			JOINT LeftFoot
			{
				OFFSET 0.000000 -44.427900 -2.982200
				CHANNELS 3 Zrotation Yrotation Xrotation
				JOINT LeftToeBase
				{
					OFFSET -0.000000 -8.728700 10.710600
					CHANNELS 3 Zrotation Yrotation Xrotation
					JOINT LeftToe_End
					{
						OFFSET -0.000000 -0.000700 9.278100
						CHANNELS 3 Zrotation Yrotation Xrotation
						End Site
						{
							OFFSET 0.000000 0.000000 0.000000
						}
					}
				}
			}
		}
	}
	JOINT RightUpLeg
	{
		OFFSET -8.207800 -6.751700 -1.599600
		CHANNELS 3 Zrotation Yrotation Xrotation
		JOINT RightLeg
		{
			OFFSET 0.000000 -44.370500 0.286200
			CHANNELS 3 Zrotation Yrotation Xrotation
			JOINT RightFoot
			{
				OFFSET 0.000000 -44.427700 -2.983800
				CHANNELS 3 Zrotation Yrotation Xrotation
				JOINT RightToeBase
				{
					OFFSET -0.000000 -8.728700 10.710600
					CHANNELS 3 Zrotation Yrotation Xrotation
					JOINT RightToe_End
					{
						OFFSET -0.000000 -0.000700 9.278100
						CHANNELS 3 Zrotation Yrotation Xrotation
						End Site
						{
							OFFSET 0.000000 0.000000 0.000000
						}
					}
				}
			}
		}
	}
}
MOTION
Frames: 6
Frame Time: 0.033333
-3.421046 92.386971 241.517700 -11.576351 19.954403 -16.253174 -21.173788 -28.463020 18.374084 7.646081 -4.881543 4.228995 7.379494 -4.695667 4.848235 -4.098683 -8.686249 1.205952 14.825748 -49.800972 -8.523161 0.000000 0.000000 0.000000 0.000000 0.000000 0.000000 0.000000 0.000000 0.000000 -4.453202 -12.196799 1.935538 -58.451145 -63.316509 47.089828 -0.000209 -61.932114 0.000016 9.603631 -6.923717 69.999817 6.061774 3.826431 -1.148864 1.299533 7.877598 4.081827 2.523226 1.599737 -0.508689 0.000000 0.000000 0.000000 -8.506996 1.018877 -0.075773 -12.202353 1.455619 -0.155594 -11.450185 1.367165 -0.137065 0.000000 0.000000 0.000000 -10.661452 1.274158 -0.118899 -13.708846 1.631987 -0.196178 -14.218489 1.691408 -0.210969 0.000000 0.000000 0.000000 -13.393591 1.595183 -0.187322 -15.549849 1.845945 -0.252056 -17.683516 2.091434 -0.325357 0.000000 0.000000 0.000000 -15.078016 5.904980 -0.219415 -17.531958 -1.855723 0.902281 -20.466600 2.407146 -0.434631 0.000000 0.000000 0.000000 -1.749420 -4.152626 -0.043173 28.545347 -11.493402 -39.306339 -0.000009 57.002895 -0.000000 -38.627296 -4.998030 -12.479177 37.510113 -4.229079 -1.436034 28.720854 -3.337213 -0.854215 19.671797 -2.340126 -0.405787 0.000000 0.000000 0.000000 30.283745 -3.503136 -0.948253 23.308510 -2.750041 -0.567311 14.238503 -1.710247 -0.213627 0.000000 0.000000 0.000000 21.273745 -2.521975 -0.473733 16.527031 -1.977815 -0.287276 7.478195 -0.907187 -0.059161 0.000000 0.000000 0.000000 14.076636 -1.691208 -0.208822 11.104076 -1.339314 -0.130202 2.075485 -0.251901 -0.004549 0.000000 0.000000 0.000000 -6.488741 -3.762498 -1.439570 -0.926598 -8.586014 4.725164 -2.098855 0.088613 -1.277550 0.000000 0.000000 0.000000 18.935226 12.244217 1.061817 -0.883844 -7.387196 68.320496 -0.146692 -0.016769 -7.940691 0.000004 0.000004 -18.652763 0.000000 0.000000 0.000000 10.948323 10.672886 -22.592703 5.829029 1.497215 51.307648 -1.560202 -0.315151 -15.035469 0.000002 0.000015 -4.565574 0.000000 0.000000 0.000000 
-3.447125 92.082428 243.152481 -14.323167 16.418852 -17.142469 -19.798723 -28.184093 18.966085 9.363998 -5.014305 4.884653 9.048548 -4.817712 5.601543 -4.133700 -7.531215 -0.694966 11.912591 -43.104191 -8.474127 0.000000 0.000000 0.000000 0.000000 0.000000 0.000000 0.000000 0.000000 0.000000 -3.803638 -11.606055 1.780205 -51.163471 -64.652863 35.292439 -0.000223 -63.870472 -0.000017 8.963789 -7.003214 70.624718 6.061774 3.826431 -1.148864 1.299533 7.877598 4.081827 2.523226 1.599737 -0.508689 0.000000 0.000000 0.000000 -9.142508 1.094345 -0.087510 -12.520212 1.492921 -0.163778 -11.768023 1.404577 -0.144760 0.000000 0.000000 0.000000 -10.814764 1.292257 -0.122340 -13.785674 1.640957 -0.198379 -14.295029 1.700307 -0.213231 0.000000 0.000000 0.000000 -12.944097 1.542605 -0.175004 -15.324624 1.819869 -0.244862 -17.459040 2.065738 -0.317223 0.000000 0.000000 0.000000 -14.143831 5.796637 -0.191025 -17.067001 -1.918961 0.886950 -20.000151 2.354612 -0.415241 0.000000 0.000000 0.000000 -2.947644 -3.684722 -0.011970 31.350956 -2.022386 -54.893841 0.000033 67.823990 0.000041 -39.632042 1.202471 -1.204125 32.625614 -3.746269 -1.096281 26.282803 -3.075504 -0.717812 17.237782 -2.060272 -0.312324 0.000000 0.000000 0.000000 26.714066 -3.123641 -0.741850 21.522926 -2.550093 -0.484760 12.460992 -1.500466 -0.163818 0.000000 0.000000 0.000000 19.340178 -2.302238 -0.392343 15.559521 -1.865071 -0.254823 6.514241 -0.791068 -0.044919 0.000000 0.000000 0.000000 13.448033 -1.617152 -0.190674 10.789876 -1.301890 -0.122954 1.761442 -0.213801 -0.003279 0.000000 0.000000 0.000000 -6.488741 -3.762498 -1.439570 -0.926598 -8.586014 4.725164 -2.098855 0.088613 -1.277550 0.000000 0.000000 0.000000 22.458952 18.908682 -1.901919 2.920700 -9.521421 72.448021 -0.518098 -0.790544 -9.988961 0.000003 -0.000004 -14.523530 0.000000 0.000000 0.000000 14.194957 11.765557 -21.404743 8.037220 0.909983 51.903492 -3.158581 -0.630921 -14.740935 -0.000000 -0.000010 -5.274658 0.000000 0.000000 0.000000 
-3.227927 92.439758 244.268326 -14.889486 12.046689 -16.410536 -19.037561 -26.517515 18.557520 10.832629 -4.975870 5.489208 10.487755 -4.768291 6.263671 -3.833012 -6.005649 -2.815844 9.690068 -34.316750 -9.028214 0.000000 0.000000 0.000000 0.000000 0.000000 0.000000 0.000000 0.000000 0.000000 -2.419884 -11.166256 1.559577 -39.976810 -65.668663 20.474478 -0.000212 -64.275917 0.000013 8.646062 -7.206725 70.722466 6.061774 3.826431 -1.148864 1.299533 7.877598 4.081827 2.523226 1.599737 -0.508689 0.000000 0.000000 0.000000 -9.458076 1.131771 -0.093622 -12.678051 1.511431 -0.167920 -11.925838 1.423139 -0.148643 0.000000 0.000000 0.000000 -10.948718 1.308055 -0.125369 -13.852798 1.648788 -0.200320 -14.361904 1.708089 -0.215217 0.000000 0.000000 0.000000 -12.851040 1.531701 -0.172510 -15.277993 1.814469 -0.243377 -17.412561 2.060425 -0.315552 0.000000 0.000000 0.000000 -13.868474 5.764613 -0.182984 -16.929913 -1.937581 0.882345 -19.862637 2.339088 -0.409615 0.000000 0.000000 0.000000 -4.396790 -2.796182 0.028636 30.697075 4.468165 -65.800652 0.000011 75.677734 0.000025 -35.016117 10.500436 11.289935 27.630634 -3.223911 -0.792585 23.788002 -2.801818 -0.589901 14.746756 -1.769927 -0.229048 0.000000 0.000000 0.000000 24.150894 -2.843423 -0.608417 20.237896 -2.404608 -0.429212 11.186075 -1.349077 -0.132116 0.000000 0.000000 0.000000 19.807922 -2.355659 -0.411349 15.791563 -1.892145 -0.262456 6.749090 -0.819388 -0.048194 0.000000 0.000000 0.000000 16.336470 -1.955644 -0.280741 12.233540 -1.473515 -0.157918 3.204298 -0.388782 -0.010868 0.000000 0.000000 0.000000 -6.488741 -3.762498 -1.439570 -0.926598 -8.586014 4.725164 -2.098855 0.088613 -1.277550 0.000000 0.000000 0.000000 22.850731 23.615351 -3.929191 7.021184 -8.151896 71.480484 -0.335180 -1.049270 -13.337883 -0.110573 -0.027362 -13.967774 0.000000 0.000000 0.000000 15.602820 13.317221 -20.361019 8.956462 1.076440 51.173176 -4.131989 0.363963 -13.807194 -0.000000 -0.000017 -5.544364 0.000000 0.000000 0.000000 
-2.695303 93.472847 245.036301 -13.732448 7.203126 -14.543823 -18.267492 -23.918428 17.455271 11.584515 -4.681391 5.568191 11.262146 -4.469875 6.325679 -3.268356 -4.178323 -4.649745 8.053616 -24.109919 -9.561218 0.000000 0.000000 0.000000 0.000000 0.000000 0.000000 0.000000 0.000000 0.000000 -0.133657 -10.874984 1.240668 -26.515238 -65.427399 4.952819 -0.000208 -62.543671 -0.000008 9.133314 -7.656718 69.854889 6.061774 3.826431 -1.148864 1.299533 7.877598 4.081827 2.523226 1.599737 -0.508689 0.000000 0.000000 0.000000 -8.974126 1.074356 -0.084298 -12.435998 1.483049 -0.161591 -11.683814 1.394673 -0.142702 0.000000 0.000000 0.000000 -10.729164 1.282148 -0.120392 -13.742783 1.635957 -0.197158 -14.252282 1.695329 -0.211950 0.000000 0.000000 0.000000 -12.961955 1.544689 -0.175466 -15.333571 1.820902 -0.245140 -17.467960 2.066761 -0.317547 0.000000 0.000000 0.000000 -14.244730 5.808357 -0.193980 -17.117224 -1.912133 0.888636 -20.050524 2.360288 -0.417319 0.000000 0.000000 0.000000 -6.227328 -1.673568 0.054709 26.816193 7.889739 -68.958351 -0.000008 78.261497 0.000001 -28.825075 17.696016 21.606714 25.078224 -2.947085 -0.655259 22.512632 -2.659779 -0.529142 13.473145 -1.620112 -0.191382 0.000000 0.000000 0.000000 23.579308 -2.780119 -0.580390 19.948935 -2.371723 -0.417163 10.903642 -1.315436 -0.125552 0.000000 0.000000 0.000000 21.708067 -2.570926 -0.493026 16.739969 -2.002558 -0.294665 7.698270 -0.933663 -0.062688 0.000000 0.000000 0.000000 20.212412 -2.401722 -0.428138 14.170173 -1.702206 -0.211588 5.139598 -0.623071 -0.027964 0.000000 0.000000 0.000000 -6.488741 -3.762498 -1.439570 -0.926598 -8.586014 4.725164 -2.098855 0.088613 -1.277550 0.000000 0.000000 0.000000 20.271139 25.040245 -5.080050 10.627159 -5.863828 66.805161 -1.369845 0.367237 -15.533446 -1.657404 -0.445964 -16.081419 0.000000 0.000000 0.000000 15.265298 14.850597 -19.477671 9.029070 2.288706 49.291069 -4.553604 3.162723 -12.302241 -0.000004 0.000011 -5.824380 0.000000 0.000000 0.000000 
-1.768451 95.208351 245.555908 -11.996646 2.498000 -11.979360 -16.552765 -21.312035 16.057936 11.375533 -4.177996 5.019182 11.121497 -3.975820 5.684163 -2.465920 -2.203610 -6.064394 6.699311 -13.250729 -9.818263 0.000000 0.000000 0.000000 0.000000 0.000000 0.000000 0.000000 0.000000 0.000000 3.094449 -10.879737 0.817955 -14.397151 -63.235516 -7.674749 -0.000214 -59.019264 0.000010 10.598145 -8.274064 67.767555 6.061774 3.826431 -1.148864 1.299533 7.877598 4.081827 2.523226 1.599737 -0.508689 0.000000 0.000000 0.000000 -7.519332 0.901326 -0.059226 -11.708357 1.397561 -0.143295 -10.956229 1.308946 -0.125549 0.000000 0.000000 0.000000 -9.917584 1.186211 -0.102927 -13.336089 1.588449 -0.185706 -13.847064 1.648130 -0.200135 0.000000 0.000000 0.000000 -12.954273 1.543790 -0.175278 -15.329722 1.820457 -0.245019 -17.464108 2.066321 -0.317403 0.000000 0.000000 0.000000 -14.881989 5.882280 -0.213295 -17.434420 -1.868995 0.899090 -20.368713 2.396125 -0.430512 0.000000 0.000000 0.000000 -8.470592 -0.523265 0.035819 20.546846 10.228834 -64.621803 -0.000038 75.011459 -0.000055 -25.349035 20.191002 27.310635 26.395807 -3.090771 -0.724610 23.171036 -2.733271 -0.560117 14.130668 -1.697571 -0.210418 0.000000 0.000000 0.000000 25.161594 -2.954651 -0.659545 20.739386 -2.461537 -0.450497 11.693154 -1.409379 -0.144328 0.000000 0.000000 0.000000 23.620905 -2.784738 -0.582405 17.695740 -2.113241 -0.328989 8.652497 -1.048292 -0.079155 0.000000 0.000000 0.000000 22.389671 -2.647469 -0.524060 15.257710 -1.829776 -0.245108 6.226272 -0.754316 -0.041026 0.000000 0.000000 0.000000 -6.488741 -3.762498 -1.439570 -0.926598 -8.586014 4.725164 -2.098855 0.088613 -1.277550 0.000000 0.000000 0.000000 16.687967 23.762558 -4.960452 11.531631 -0.641059 60.346951 -4.132246 3.179619 -15.590704 -2.571256 -0.743035 -17.695234 0.000000 0.000000 0.000000 13.816628 16.017759 -18.608831 8.733696 4.538801 45.528450 -4.639164 6.626038 -9.780890 0.000002 -0.000019 -6.170439 0.000000 0.000000 0.000000 
-0.573186 97.551300 245.934738 -10.425147 -1.462650 -8.643667 -13.665134 -19.436064 14.427567 10.313510 -3.634279 4.151625 10.137739 -3.459399 4.681391 -1.431757 -0.254834 -7.368879 5.190659 -2.485263 -9.918260 0.000000 0.000000 0.000000 0.000000 0.000000 0.000000 0.000000 0.000000 0.000000 6.938660 -11.129863 0.332445 -6.377493 -59.330894 -15.034836 -0.000206 -54.504383 0.000001 12.848240 -8.763304 64.373169 6.061774 3.826431 -1.148864 1.299533 7.877598 4.081827 2.523226 1.599737 -0.508689 0.000000 0.000000 0.000000 -5.284920 0.634440 -0.029287 -10.590752 1.265802 -0.117340 -9.838691 1.176859 -0.101297 0.000000 0.000000 0.000000 -8.467827 1.014220 -0.075099 -12.609585 1.503412 -0.166115 -13.123156 1.563555 -0.179854 0.000000 0.000000 0.000000 -12.485057 1.488799 -0.162856 -15.094607 1.793212 -0.237609 -17.229803 2.039478 -0.309018 0.000000 0.000000 0.000000 -15.198463 5.918917 -0.223197 -17.591894 -1.847561 0.904198 -20.526730 2.413900 -0.437150 0.000000 0.000000 0.000000 -11.043969 0.666790 -0.050310 12.699146 10.681039 -54.901249 0.000014 66.769577 0.000023 -25.266518 18.779379 27.337067 30.188093 -3.494738 -0.942414 25.065538 -2.942669 -0.653922 16.022408 -1.919079 -0.270114 0.000000 0.000000 0.000000 27.801319 -3.240622 -0.802211 22.060438 -2.610545 -0.508951 13.007742 -1.565165 -0.178446 0.000000 0.000000 0.000000 24.822330 -2.917421 -0.642166 18.296883 -2.182541 -0.351522 9.250894 -1.120021 -0.090453 0.000000 0.000000 0.000000 22.441372 -2.653267 -0.526447 15.283537 -1.832802 -0.245927 6.252060 -0.757414 -0.041370 0.000000 0.000000 0.000000 -6.488741 -3.762498 -1.439570 -0.926598 -8.586014 4.725164 -2.098855 0.088613 -1.277550 0.000000 0.000000 0.000000 13.091671 21.982153 -3.652282 9.672694 3.894493 52.203388 -6.985277 5.585069 -13.669930 -3.034413 -0.881714 -18.028425 0.000000 0.000000 0.000000 11.843300 16.789658 -17.905293 7.275868 6.454469 39.209728 -4.136679 8.500519 -5.426268 -0.000000 0.000014 -7.352274 0.000000 0.000000 0.000000 
